<?xml version="1.0" standalone="no"?>
<!DOCTYPE svg PUBLIC "-//W3C//DTD SVG 1.1//EN" "http://www.w3.org/Graphics/SVG/1.1/DTD/svg11.dtd">
<svg xmlns:xlink="http://www.w3.org/1999/xlink" width="46.351ex" height="37.176ex" style="vertical-align: -18.005ex;" viewBox="0 -8254.3 19956.5 16006.3" xmlns="http://www.w3.org/2000/svg">
<defs>
<path stroke-width="10" id="E1-MJMATHI-61" d="M33 157Q33 258 109 349T280 441Q331 441 370 392Q386 422 416 422Q429 422 439 414T449 394Q449 381 412 234T374 68Q374 43 381 35T402 26Q411 27 422 35Q443 55 463 131Q469 151 473 152Q475 153 483 153H487Q506 153 506 144Q506 138 501 117T481 63T449 13Q436 0 417 -8Q409 -10 393 -10Q359 -10 336 5T306 36L300 51Q299 52 296 50Q294 48 292 46Q233 -10 172 -10Q117 -10 75 30T33 157ZM351 328Q351 334 346 350T323 385T277 405Q242 405 210 374T160 293Q131 214 119 129Q119 126 119 118T118 106Q118 61 136 44T179 26Q217 26 254 59T298 110Q300 114 325 217T351 328Z"></path>
<path stroke-width="10" id="E1-MJMAIN-2B" d="M56 237T56 250T70 270H369V420L370 570Q380 583 389 583Q402 583 409 568V270H707Q722 262 722 250T707 230H409V-68Q401 -82 391 -82H389H387Q375 -82 369 -68V230H70Q56 237 56 250Z"></path>
<path stroke-width="10" id="E1-MJMAIN-31" d="M213 578L200 573Q186 568 160 563T102 556H83V602H102Q149 604 189 617T245 641T273 663Q275 666 285 666Q294 666 302 660V361L303 61Q310 54 315 52T339 48T401 46H427V0H416Q395 3 257 3Q121 3 100 0H88V46H114Q136 46 152 46T177 47T193 50T201 52T207 57T213 61V578Z"></path>
<path stroke-width="10" id="E1-MJMAIN-3D" d="M56 347Q56 360 70 367H707Q722 359 722 347Q722 336 708 328L390 327H72Q56 332 56 347ZM56 153Q56 168 72 173H708Q722 163 722 153Q722 140 707 133H70Q56 140 56 153Z"></path>
<path stroke-width="10" id="E1-MJMATHI-53" d="M308 24Q367 24 416 76T466 197Q466 260 414 284Q308 311 278 321T236 341Q176 383 176 462Q176 523 208 573T273 648Q302 673 343 688T407 704H418H425Q521 704 564 640Q565 640 577 653T603 682T623 704Q624 704 627 704T632 705Q645 705 645 698T617 577T585 459T569 456Q549 456 549 465Q549 471 550 475Q550 478 551 494T553 520Q553 554 544 579T526 616T501 641Q465 662 419 662Q362 662 313 616T263 510Q263 480 278 458T319 427Q323 425 389 408T456 390Q490 379 522 342T554 242Q554 216 546 186Q541 164 528 137T492 78T426 18T332 -20Q320 -22 298 -22Q199 -22 144 33L134 44L106 13Q83 -14 78 -18T65 -22Q52 -22 52 -14Q52 -11 110 221Q112 227 130 227H143Q149 221 149 216Q149 214 148 207T144 186T142 153Q144 114 160 87T203 47T255 29T308 24Z"></path>
<path stroke-width="10" id="E1-MJMAIN-28" d="M94 250Q94 319 104 381T127 488T164 576T202 643T244 695T277 729T302 750H315H319Q333 750 333 741Q333 738 316 720T275 667T226 581T184 443T167 250T184 58T225 -81T274 -167T316 -220T333 -241Q333 -250 318 -250H315H302L274 -226Q180 -141 137 -14T94 250Z"></path>
<path stroke-width="10" id="E1-MJMAIN-30" d="M96 585Q152 666 249 666Q297 666 345 640T423 548Q460 465 460 320Q460 165 417 83Q397 41 362 16T301 -15T250 -22Q224 -22 198 -16T137 16T82 83Q39 165 39 320Q39 494 96 585ZM321 597Q291 629 250 629Q208 629 178 597Q153 571 145 525T137 333Q137 175 145 125T181 46Q209 16 250 16Q290 16 318 46Q347 76 354 130T362 333Q362 478 354 524T321 597Z"></path>
<path stroke-width="10" id="E1-MJMAIN-29" d="M60 749L64 750Q69 750 74 750H86L114 726Q208 641 251 514T294 250Q294 182 284 119T261 12T224 -76T186 -143T145 -194T113 -227T90 -246Q87 -249 86 -250H74Q66 -250 63 -250T58 -247T55 -238Q56 -237 66 -225Q221 -64 221 250T66 725Q56 737 55 738Q55 746 60 749Z"></path>
<path stroke-width="10" id="E1-MJMAIN-62" d="M307 -11Q234 -11 168 55L158 37Q156 34 153 28T147 17T143 10L138 1L118 0H98V298Q98 599 97 603Q94 622 83 628T38 637H20V660Q20 683 22 683L32 684Q42 685 61 686T98 688Q115 689 135 690T165 693T176 694H179V543Q179 391 180 391L183 394Q186 397 192 401T207 411T228 421T254 431T286 439T323 442Q401 442 461 379T522 216Q522 115 458 52T307 -11ZM182 98Q182 97 187 90T196 79T206 67T218 55T233 44T250 35T271 29T295 26Q330 26 363 46T412 113Q424 148 424 212Q424 287 412 323Q385 405 300 405Q270 405 239 390T188 347L182 339V98Z"></path>
<path stroke-width="10" id="E1-MJMAIN-79" d="M69 -66Q91 -66 104 -80T118 -116Q118 -134 109 -145T91 -160Q84 -163 97 -166Q104 -168 111 -168Q131 -168 148 -159T175 -138T197 -106T213 -75T225 -43L242 0L170 183Q150 233 125 297Q101 358 96 368T80 381Q79 382 78 382Q66 385 34 385H19V431H26L46 430Q65 430 88 429T122 428Q129 428 142 428T171 429T200 430T224 430L233 431H241V385H232Q183 385 185 366L286 112Q286 113 332 227L376 341V350Q376 365 366 373T348 383T334 385H331V431H337H344Q351 431 361 431T382 430T405 429T422 429Q477 429 503 431H508V385H497Q441 380 422 345Q420 343 378 235T289 9T227 -131Q180 -204 113 -204Q69 -204 44 -177T19 -116Q19 -89 35 -78T69 -66Z"></path>
<path stroke-width="10" id="E1-MJMAIN-64" d="M376 495Q376 511 376 535T377 568Q377 613 367 624T316 637H298V660Q298 683 300 683L310 684Q320 685 339 686T376 688Q393 689 413 690T443 693T454 694H457V390Q457 84 458 81Q461 61 472 55T517 46H535V0Q533 0 459 -5T380 -11H373V44L365 37Q307 -11 235 -11Q158 -11 96 50T34 215Q34 315 97 378T244 442Q319 442 376 393V495ZM373 342Q328 405 260 405Q211 405 173 369Q146 341 139 305T131 211Q131 155 138 120T173 59Q203 26 251 26Q322 26 373 103V342Z"></path>
<path stroke-width="10" id="E1-MJMAIN-65" d="M28 218Q28 273 48 318T98 391T163 433T229 448Q282 448 320 430T378 380T406 316T415 245Q415 238 408 231H126V216Q126 68 226 36Q246 30 270 30Q312 30 342 62Q359 79 369 104L379 128Q382 131 395 131H398Q415 131 415 121Q415 117 412 108Q393 53 349 21T250 -11Q155 -11 92 58T28 218ZM333 275Q322 403 238 411H236Q228 411 220 410T195 402T166 381T143 340T127 274V267H333V275Z"></path>
<path stroke-width="10" id="E1-MJMAIN-66" d="M273 0Q255 3 146 3Q43 3 34 0H26V46H42Q70 46 91 49Q99 52 103 60Q104 62 104 224V385H33V431H104V497L105 564L107 574Q126 639 171 668T266 704Q267 704 275 704T289 705Q330 702 351 679T372 627Q372 604 358 590T321 576T284 590T270 627Q270 647 288 667H284Q280 668 273 668Q245 668 223 647T189 592Q183 572 182 497V431H293V385H185V225Q185 63 186 61T189 57T194 54T199 51T206 49T213 48T222 47T231 47T241 46T251 46H282V0H273Z"></path>
<path stroke-width="10" id="E1-MJMAIN-69" d="M69 609Q69 637 87 653T131 669Q154 667 171 652T188 609Q188 579 171 564T129 549Q104 549 87 564T69 609ZM247 0Q232 3 143 3Q132 3 106 3T56 1L34 0H26V46H42Q70 46 91 49Q100 53 102 60T104 102V205V293Q104 345 102 359T88 378Q74 385 41 385H30V408Q30 431 32 431L42 432Q52 433 70 434T106 436Q123 437 142 438T171 441T182 442H185V62Q190 52 197 50T232 46H255V0H247Z"></path>
<path stroke-width="10" id="E1-MJMAIN-6E" d="M41 46H55Q94 46 102 60V68Q102 77 102 91T102 122T103 161T103 203Q103 234 103 269T102 328V351Q99 370 88 376T43 385H25V408Q25 431 27 431L37 432Q47 433 65 434T102 436Q119 437 138 438T167 441T178 442H181V402Q181 364 182 364T187 369T199 384T218 402T247 421T285 437Q305 442 336 442Q450 438 463 329Q464 322 464 190V104Q464 66 466 59T477 49Q498 46 526 46H542V0H534L510 1Q487 2 460 2T422 3Q319 3 310 0H302V46H318Q379 46 379 62Q380 64 380 200Q379 335 378 343Q372 371 358 385T334 402T308 404Q263 404 229 370Q202 343 195 315T187 232V168V108Q187 78 188 68T191 55T200 49Q221 46 249 46H265V0H257L234 1Q210 2 183 2T145 3Q42 3 33 0H25V46H41Z"></path>
<path stroke-width="10" id="E1-MJMAIN-74" d="M27 422Q80 426 109 478T141 600V615H181V431H316V385H181V241Q182 116 182 100T189 68Q203 29 238 29Q282 29 292 100Q293 108 293 146V181H333V146V134Q333 57 291 17Q264 -10 221 -10Q187 -10 162 2T124 33T105 68T98 100Q97 107 97 248V385H18V422H27Z"></path>
<path stroke-width="10" id="E1-MJMAIN-6F" d="M28 214Q28 309 93 378T250 448Q340 448 405 380T471 215Q471 120 407 55T250 -10Q153 -10 91 57T28 214ZM250 30Q372 30 372 193V225V250Q372 272 371 288T364 326T348 362T317 390T268 410Q263 411 252 411Q222 411 195 399Q152 377 139 338T126 246V226Q126 130 145 91Q177 30 250 30Z"></path>
<path stroke-width="10" id="E1-MJMAIN-75" d="M383 58Q327 -10 256 -10H249Q124 -10 105 89Q104 96 103 226Q102 335 102 348T96 369Q86 385 36 385H25V408Q25 431 27 431L38 432Q48 433 67 434T105 436Q122 437 142 438T172 441T184 442H187V261Q188 77 190 64Q193 49 204 40Q224 26 264 26Q290 26 311 35T343 58T363 90T375 120T379 144Q379 145 379 161T380 201T380 248V315Q380 361 370 372T320 385H302V431Q304 431 378 436T457 442H464V264Q464 84 465 81Q468 61 479 55T524 46H542V0Q540 0 467 -5T390 -11H383V58Z"></path>
<path stroke-width="10" id="E1-MJMAIN-73" d="M295 316Q295 356 268 385T190 414Q154 414 128 401Q98 382 98 349Q97 344 98 336T114 312T157 287Q175 282 201 278T245 269T277 256Q294 248 310 236T342 195T359 133Q359 71 321 31T198 -10H190Q138 -10 94 26L86 19L77 10Q71 4 65 -1L54 -11H46H42Q39 -11 33 -5V74V132Q33 153 35 157T45 162H54Q66 162 70 158T75 146T82 119T101 77Q136 26 198 26Q295 26 295 104Q295 133 277 151Q257 175 194 187T111 210Q75 227 54 256T33 318Q33 357 50 384T93 424T143 442T187 447H198Q238 447 268 432L283 424L292 431Q302 440 314 448H322H326Q329 448 335 442V310L329 304H301Q295 310 295 316Z"></path>
<path stroke-width="10" id="E1-MJMAIN-67" d="M329 409Q373 453 429 453Q459 453 472 434T485 396Q485 382 476 371T449 360Q416 360 412 390Q410 404 415 411Q415 412 416 414V415Q388 412 363 393Q355 388 355 386Q355 385 359 381T368 369T379 351T388 325T392 292Q392 230 343 187T222 143Q172 143 123 171Q112 153 112 133Q112 98 138 81Q147 75 155 75T227 73Q311 72 335 67Q396 58 431 26Q470 -13 470 -72Q470 -139 392 -175Q332 -206 250 -206Q167 -206 107 -175Q29 -140 29 -75Q29 -39 50 -15T92 18L103 24Q67 55 67 108Q67 155 96 193Q52 237 52 292Q52 355 102 398T223 442Q274 442 318 416L329 409ZM299 343Q294 371 273 387T221 404Q192 404 171 388T145 343Q142 326 142 292Q142 248 149 227T179 192Q196 182 222 182Q244 182 260 189T283 207T294 227T299 242Q302 258 302 292T299 343ZM403 -75Q403 -50 389 -34T348 -11T299 -2T245 0H218Q151 0 138 -6Q118 -15 107 -34T95 -74Q95 -84 101 -97T122 -127T170 -155T250 -167Q319 -167 361 -139T403 -75Z"></path>
<path stroke-width="10" id="E1-MJMAIN-32" d="M109 429Q82 429 66 447T50 491Q50 562 103 614T235 666Q326 666 387 610T449 465Q449 422 429 383T381 315T301 241Q265 210 201 149L142 93L218 92Q375 92 385 97Q392 99 409 186V189H449V186Q448 183 436 95T421 3V0H50V19V31Q50 38 56 46T86 81Q115 113 136 137Q145 147 170 174T204 211T233 244T261 278T284 308T305 340T320 369T333 401T340 431T343 464Q343 527 309 573T212 619Q179 619 154 602T119 569T109 550Q109 549 114 549Q132 549 151 535T170 489Q170 464 154 447T109 429Z"></path>
<path stroke-width="10" id="E1-MJMAIN-2C" d="M78 35T78 60T94 103T137 121Q165 121 187 96T210 8Q210 -27 201 -60T180 -117T154 -158T130 -185T117 -194Q113 -194 104 -185T95 -172Q95 -168 106 -156T131 -126T157 -76T173 -3V9L172 8Q170 7 167 6T161 3T152 1T140 0Q113 0 96 17Z"></path>
<path stroke-width="10" id="E1-MJMAIN-33" d="M127 463Q100 463 85 480T69 524Q69 579 117 622T233 665Q268 665 277 664Q351 652 390 611T430 522Q430 470 396 421T302 350L299 348Q299 347 308 345T337 336T375 315Q457 262 457 175Q457 96 395 37T238 -22Q158 -22 100 21T42 130Q42 158 60 175T105 193Q133 193 151 175T169 130Q169 119 166 110T159 94T148 82T136 74T126 70T118 67L114 66Q165 21 238 21Q293 21 321 74Q338 107 338 175V195Q338 290 274 322Q259 328 213 329L171 330L168 332Q166 335 166 348Q166 366 174 366Q202 366 232 371Q266 376 294 413T322 525V533Q322 590 287 612Q265 626 240 626Q208 626 181 615T143 592T132 580H135Q138 579 143 578T153 573T165 566T175 555T183 540T186 520Q186 498 172 481T127 463Z"></path>
<path stroke-width="10" id="E1-MJMAIN-63" d="M370 305T349 305T313 320T297 358Q297 381 312 396Q317 401 317 402T307 404Q281 408 258 408Q209 408 178 376Q131 329 131 219Q131 137 162 90Q203 29 272 29Q313 29 338 55T374 117Q376 125 379 127T395 129H409Q415 123 415 120Q415 116 411 104T395 71T366 33T318 2T249 -11Q163 -11 99 53T34 214Q34 318 99 383T250 448T370 421T404 357Q404 334 387 320Z"></path>
<path stroke-width="10" id="E1-MJMAIN-2E" d="M78 60Q78 84 95 102T138 120Q162 120 180 104T199 61Q199 36 182 18T139 0T96 17T78 60Z"></path>
</defs>
<g stroke="currentColor" fill="currentColor" stroke-width="0" transform="matrix(1 0 0 -1 0 0)">
<g transform="translate(167,0)">
<g transform="translate(-11,0)">
<g transform="translate(0,7370)">
 <use xlink:href="#E1-MJMATHI-61" x="0" y="0"></use>
 <use xlink:href="#E1-MJMAIN-2B" x="756" y="0"></use>
 <use xlink:href="#E1-MJMAIN-31" x="1761" y="0"></use>
</g>
<g transform="translate(0,1990)">
 <use xlink:href="#E1-MJMATHI-61" x="0" y="0"></use>
 <use xlink:href="#E1-MJMAIN-2B" x="756" y="0"></use>
 <use xlink:href="#E1-MJMAIN-32" x="1761" y="0"></use>
</g>
<g transform="translate(0,-3390)">
 <use xlink:href="#E1-MJMATHI-61" x="0" y="0"></use>
 <use xlink:href="#E1-MJMAIN-2B" x="756" y="0"></use>
 <use xlink:href="#E1-MJMAIN-33" x="1761" y="0"></use>
</g>
<g transform="translate(691,-7470)">
 <use xlink:href="#E1-MJMAIN-65"></use>
 <use xlink:href="#E1-MJMAIN-74" x="449" y="0"></use>
 <use xlink:href="#E1-MJMAIN-63" x="843" y="0"></use>
 <use xlink:href="#E1-MJMAIN-2E" x="1292" y="0"></use>
</g>
</g>
<g transform="translate(2255,0)">
<g transform="translate(0,7370)">
 <use xlink:href="#E1-MJMAIN-3D" x="277" y="0"></use>
 <use xlink:href="#E1-MJMATHI-61" x="1338" y="0"></use>
 <use xlink:href="#E1-MJMAIN-2B" x="2094" y="0"></use>
 <use xlink:href="#E1-MJMATHI-53" x="3100" y="0"></use>
 <use xlink:href="#E1-MJMAIN-28" x="3750" y="0"></use>
 <use xlink:href="#E1-MJMAIN-30" x="4144" y="0"></use>
 <use xlink:href="#E1-MJMAIN-29" x="4649" y="0"></use>
</g>
<g transform="translate(0,6010)">
 <use xlink:href="#E1-MJMAIN-3D" x="277" y="0"></use>
 <use xlink:href="#E1-MJMATHI-53" x="1338" y="0"></use>
 <use xlink:href="#E1-MJMAIN-28" x="1988" y="0"></use>
 <use xlink:href="#E1-MJMATHI-61" x="2382" y="0"></use>
 <use xlink:href="#E1-MJMAIN-2B" x="3138" y="0"></use>
 <use xlink:href="#E1-MJMAIN-30" x="4144" y="0"></use>
 <use xlink:href="#E1-MJMAIN-29" x="4649" y="0"></use>
</g>
<g transform="translate(0,4650)">
 <use xlink:href="#E1-MJMAIN-3D" x="277" y="0"></use>
 <use xlink:href="#E1-MJMATHI-53" x="1338" y="0"></use>
 <use xlink:href="#E1-MJMAIN-28" x="1988" y="0"></use>
 <use xlink:href="#E1-MJMATHI-61" x="2382" y="0"></use>
 <use xlink:href="#E1-MJMAIN-29" x="2916" y="0"></use>
 <use xlink:href="#E1-MJMAIN-2C" x="3310" y="0"></use>
</g>
<g transform="translate(0,1990)">
 <use xlink:href="#E1-MJMAIN-3D" x="277" y="0"></use>
 <use xlink:href="#E1-MJMATHI-61" x="1338" y="0"></use>
 <use xlink:href="#E1-MJMAIN-2B" x="2094" y="0"></use>
 <use xlink:href="#E1-MJMATHI-53" x="3100" y="0"></use>
 <use xlink:href="#E1-MJMAIN-28" x="3750" y="0"></use>
 <use xlink:href="#E1-MJMAIN-31" x="4144" y="0"></use>
 <use xlink:href="#E1-MJMAIN-29" x="4649" y="0"></use>
</g>
<g transform="translate(0,630)">
 <use xlink:href="#E1-MJMAIN-3D" x="277" y="0"></use>
 <use xlink:href="#E1-MJMATHI-53" x="1338" y="0"></use>
 <use xlink:href="#E1-MJMAIN-28" x="1988" y="0"></use>
 <use xlink:href="#E1-MJMATHI-61" x="2382" y="0"></use>
 <use xlink:href="#E1-MJMAIN-2B" x="3138" y="0"></use>
 <use xlink:href="#E1-MJMAIN-31" x="4144" y="0"></use>
 <use xlink:href="#E1-MJMAIN-29" x="4649" y="0"></use>
</g>
<g transform="translate(0,-730)">
 <use xlink:href="#E1-MJMAIN-3D" x="277" y="0"></use>
 <use xlink:href="#E1-MJMATHI-53" x="1338" y="0"></use>
 <use xlink:href="#E1-MJMAIN-28" x="1988" y="0"></use>
 <use xlink:href="#E1-MJMATHI-53" x="2382" y="0"></use>
 <use xlink:href="#E1-MJMAIN-28" x="3032" y="0"></use>
 <use xlink:href="#E1-MJMATHI-61" x="3426" y="0"></use>
 <use xlink:href="#E1-MJMAIN-29" x="3960" y="0"></use>
 <use xlink:href="#E1-MJMAIN-29" x="4354" y="0"></use>
</g>
<g transform="translate(0,-3390)">
 <use xlink:href="#E1-MJMAIN-3D" x="277" y="0"></use>
 <use xlink:href="#E1-MJMATHI-61" x="1338" y="0"></use>
 <use xlink:href="#E1-MJMAIN-2B" x="2094" y="0"></use>
 <use xlink:href="#E1-MJMATHI-53" x="3100" y="0"></use>
 <use xlink:href="#E1-MJMAIN-28" x="3750" y="0"></use>
 <use xlink:href="#E1-MJMAIN-32" x="4144" y="0"></use>
 <use xlink:href="#E1-MJMAIN-29" x="4649" y="0"></use>
</g>
<g transform="translate(0,-4750)">
 <use xlink:href="#E1-MJMAIN-3D" x="277" y="0"></use>
 <use xlink:href="#E1-MJMATHI-53" x="1338" y="0"></use>
 <use xlink:href="#E1-MJMAIN-28" x="1988" y="0"></use>
 <use xlink:href="#E1-MJMATHI-61" x="2382" y="0"></use>
 <use xlink:href="#E1-MJMAIN-2B" x="3138" y="0"></use>
 <use xlink:href="#E1-MJMAIN-32" x="4144" y="0"></use>
 <use xlink:href="#E1-MJMAIN-29" x="4649" y="0"></use>
</g>
<g transform="translate(0,-6110)">
 <use xlink:href="#E1-MJMAIN-3D" x="277" y="0"></use>
 <use xlink:href="#E1-MJMATHI-53" x="1338" y="0"></use>
 <use xlink:href="#E1-MJMAIN-28" x="1988" y="0"></use>
 <use xlink:href="#E1-MJMATHI-53" x="2382" y="0"></use>
 <use xlink:href="#E1-MJMAIN-28" x="3032" y="0"></use>
 <use xlink:href="#E1-MJMATHI-53" x="3426" y="0"></use>
 <use xlink:href="#E1-MJMAIN-28" x="4076" y="0"></use>
 <use xlink:href="#E1-MJMATHI-61" x="4470" y="0"></use>
 <use xlink:href="#E1-MJMAIN-29" x="5004" y="0"></use>
 <use xlink:href="#E1-MJMAIN-29" x="5398" y="0"></use>
</g>
</g>
<g transform="translate(10048,0)">
<g transform="translate(4039,7370)">
 <use xlink:href="#E1-MJMAIN-62"></use>
 <use xlink:href="#E1-MJMAIN-79" x="561" y="0"></use>
 <use xlink:href="#E1-MJMAIN-64" x="1344" y="0"></use>
 <use xlink:href="#E1-MJMAIN-65" x="1905" y="0"></use>
 <use xlink:href="#E1-MJMAIN-66" x="2354" y="0"></use>
 <use xlink:href="#E1-MJMAIN-69" x="2665" y="0"></use>
 <use xlink:href="#E1-MJMAIN-6E" x="2948" y="0"></use>
 <use xlink:href="#E1-MJMAIN-69" x="3509" y="0"></use>
 <use xlink:href="#E1-MJMAIN-74" x="3792" y="0"></use>
 <use xlink:href="#E1-MJMAIN-69" x="4186" y="0"></use>
 <use xlink:href="#E1-MJMAIN-6F" x="4469" y="0"></use>
 <use xlink:href="#E1-MJMAIN-6E" x="4974" y="0"></use>
</g>
<g transform="translate(5722,6010)">
 <use xlink:href="#E1-MJMAIN-75"></use>
 <use xlink:href="#E1-MJMAIN-73" x="561" y="0"></use>
 <use xlink:href="#E1-MJMAIN-69" x="960" y="0"></use>
 <use xlink:href="#E1-MJMAIN-6E" x="1243" y="0"></use>
 <use xlink:href="#E1-MJMAIN-67" x="1804" y="0"></use>
 <use xlink:href="#E1-MJMAIN-28" x="2559" y="0"></use>
 <use xlink:href="#E1-MJMAIN-32" x="2953" y="0"></use>
 <use xlink:href="#E1-MJMAIN-29" x="3458" y="0"></use>
</g>
<g transform="translate(5722,4650)">
 <use xlink:href="#E1-MJMAIN-75"></use>
 <use xlink:href="#E1-MJMAIN-73" x="561" y="0"></use>
 <use xlink:href="#E1-MJMAIN-69" x="960" y="0"></use>
 <use xlink:href="#E1-MJMAIN-6E" x="1243" y="0"></use>
 <use xlink:href="#E1-MJMAIN-67" x="1804" y="0"></use>
 <use xlink:href="#E1-MJMAIN-28" x="2559" y="0"></use>
 <use xlink:href="#E1-MJMAIN-31" x="2953" y="0"></use>
 <use xlink:href="#E1-MJMAIN-29" x="3458" y="0"></use>
</g>
<g transform="translate(4039,1990)">
 <use xlink:href="#E1-MJMAIN-62"></use>
 <use xlink:href="#E1-MJMAIN-79" x="561" y="0"></use>
 <use xlink:href="#E1-MJMAIN-64" x="1344" y="0"></use>
 <use xlink:href="#E1-MJMAIN-65" x="1905" y="0"></use>
 <use xlink:href="#E1-MJMAIN-66" x="2354" y="0"></use>
 <use xlink:href="#E1-MJMAIN-69" x="2665" y="0"></use>
 <use xlink:href="#E1-MJMAIN-6E" x="2948" y="0"></use>
 <use xlink:href="#E1-MJMAIN-69" x="3509" y="0"></use>
 <use xlink:href="#E1-MJMAIN-74" x="3792" y="0"></use>
 <use xlink:href="#E1-MJMAIN-69" x="4186" y="0"></use>
 <use xlink:href="#E1-MJMAIN-6F" x="4469" y="0"></use>
 <use xlink:href="#E1-MJMAIN-6E" x="4974" y="0"></use>
</g>
<g transform="translate(5722,630)">
 <use xlink:href="#E1-MJMAIN-75"></use>
 <use xlink:href="#E1-MJMAIN-73" x="561" y="0"></use>
 <use xlink:href="#E1-MJMAIN-69" x="960" y="0"></use>
 <use xlink:href="#E1-MJMAIN-6E" x="1243" y="0"></use>
 <use xlink:href="#E1-MJMAIN-67" x="1804" y="0"></use>
 <use xlink:href="#E1-MJMAIN-28" x="2559" y="0"></use>
 <use xlink:href="#E1-MJMAIN-32" x="2953" y="0"></use>
 <use xlink:href="#E1-MJMAIN-29" x="3458" y="0"></use>
</g>
<g transform="translate(1438,-730)">
 <use xlink:href="#E1-MJMAIN-75"></use>
 <use xlink:href="#E1-MJMAIN-73" x="561" y="0"></use>
 <use xlink:href="#E1-MJMAIN-69" x="960" y="0"></use>
 <use xlink:href="#E1-MJMAIN-6E" x="1243" y="0"></use>
 <use xlink:href="#E1-MJMAIN-67" x="1804" y="0"></use>
 <use xlink:href="#E1-MJMATHI-61" x="2559" y="0"></use>
 <use xlink:href="#E1-MJMAIN-2B" x="3315" y="0"></use>
 <use xlink:href="#E1-MJMAIN-31" x="4320" y="0"></use>
 <use xlink:href="#E1-MJMAIN-3D" x="5103" y="0"></use>
 <use xlink:href="#E1-MJMATHI-53" x="6164" y="0"></use>
 <use xlink:href="#E1-MJMAIN-28" x="6814" y="0"></use>
 <use xlink:href="#E1-MJMATHI-61" x="7208" y="0"></use>
 <use xlink:href="#E1-MJMAIN-29" x="7742" y="0"></use>
</g>
<g transform="translate(4039,-3390)">
 <use xlink:href="#E1-MJMAIN-62"></use>
 <use xlink:href="#E1-MJMAIN-79" x="561" y="0"></use>
 <use xlink:href="#E1-MJMAIN-64" x="1344" y="0"></use>
 <use xlink:href="#E1-MJMAIN-65" x="1905" y="0"></use>
 <use xlink:href="#E1-MJMAIN-66" x="2354" y="0"></use>
 <use xlink:href="#E1-MJMAIN-69" x="2665" y="0"></use>
 <use xlink:href="#E1-MJMAIN-6E" x="2948" y="0"></use>
 <use xlink:href="#E1-MJMAIN-69" x="3509" y="0"></use>
 <use xlink:href="#E1-MJMAIN-74" x="3792" y="0"></use>
 <use xlink:href="#E1-MJMAIN-69" x="4186" y="0"></use>
 <use xlink:href="#E1-MJMAIN-6F" x="4469" y="0"></use>
 <use xlink:href="#E1-MJMAIN-6E" x="4974" y="0"></use>
</g>
<g transform="translate(5722,-4750)">
 <use xlink:href="#E1-MJMAIN-75"></use>
 <use xlink:href="#E1-MJMAIN-73" x="561" y="0"></use>
 <use xlink:href="#E1-MJMAIN-69" x="960" y="0"></use>
 <use xlink:href="#E1-MJMAIN-6E" x="1243" y="0"></use>
 <use xlink:href="#E1-MJMAIN-67" x="1804" y="0"></use>
 <use xlink:href="#E1-MJMAIN-28" x="2559" y="0"></use>
 <use xlink:href="#E1-MJMAIN-32" x="2953" y="0"></use>
 <use xlink:href="#E1-MJMAIN-29" x="3458" y="0"></use>
</g>
<g transform="translate(0,-6110)">
 <use xlink:href="#E1-MJMAIN-75"></use>
 <use xlink:href="#E1-MJMAIN-73" x="561" y="0"></use>
 <use xlink:href="#E1-MJMAIN-69" x="960" y="0"></use>
 <use xlink:href="#E1-MJMAIN-6E" x="1243" y="0"></use>
 <use xlink:href="#E1-MJMAIN-67" x="1804" y="0"></use>
 <use xlink:href="#E1-MJMATHI-61" x="2559" y="0"></use>
 <use xlink:href="#E1-MJMAIN-2B" x="3315" y="0"></use>
 <use xlink:href="#E1-MJMAIN-32" x="4320" y="0"></use>
 <use xlink:href="#E1-MJMAIN-3D" x="5103" y="0"></use>
 <use xlink:href="#E1-MJMATHI-53" x="6164" y="0"></use>
 <use xlink:href="#E1-MJMAIN-28" x="6814" y="0"></use>
 <use xlink:href="#E1-MJMATHI-53" x="7208" y="0"></use>
 <use xlink:href="#E1-MJMAIN-28" x="7858" y="0"></use>
 <use xlink:href="#E1-MJMATHI-61" x="8252" y="0"></use>
 <use xlink:href="#E1-MJMAIN-29" x="8786" y="0"></use>
 <use xlink:href="#E1-MJMAIN-29" x="9180" y="0"></use>
</g>
</g>
</g>
</g>
</svg>